# xmcd
#
# Track frame offsets: 
#        150
#        12958
#        23617
#        40740
#        53221
#        73291
#        86000
#        97737
#        116294
#        122391
#        131657
#        149989
#        167666
#        189314
#        210147
#        215583
#        222154
#        229651
#        237290
#        249875
#        269879
#
# Disc length: 3737 seconds
#
# Revision: 0
# Processed by: cddbd v1.5.2PL0 Copyright (c) Steve Scherf et al.
# Submitted via: ExactAudioCopy v0.99pb5
#
DISCID=260e9715
DTITLE=Guerilla Black - Black By Popular Demand
DYEAR=2004
DGENRE=Hip Hop
TTITLE0=Muthafuckaz Gon' Die
TTITLE1=Black Won't Change
TTITLE2=Rolling Thru The Hood
TTITLE3=Running From The Police
TTITLE4=Cut The Lights Out
TTITLE5=Dollar Figga Gang
TTITLE6=Freak In You
TTITLE7=Uh Oh
TTITLE8=G'd Up
TTITLE9=Give It To Me
TTITLE10=Let's Make Moves
TTITLE11=Lonely
TTITLE12=Lord Knows
TTITLE13=I Don't Give A Fuck (feat. Snoop Dogg)
TTITLE14=One For Black (Freestyle)
TTITLE15=Run Up On You
TTITLE16=Searching For ...
TTITLE17=Blackbounce
TTITLE18=Problem Solver (Freestyle)
TTITLE19=The Outcome
TTITLE20=Who Did It?
EXTD=
EXTT0=
EXTT1=
EXTT2=
EXTT3=
EXTT4=
EXTT5=
EXTT6=
EXTT7=
EXTT8=
EXTT9=
EXTT10=
EXTT11=
EXTT12=
EXTT13=
EXTT14=
EXTT15=
EXTT16=
EXTT17=
EXTT18=
EXTT19=
EXTT20=
PLAYORDER=
